<?xml version="1.0"?>
<svg xmlns="http://www.w3.org/2000/svg" xmlns:xlink="http://www.w3.org/1999/xlink" xmlns:svgjs="http://svgjs.com/svgjs" version="1.1" width="512" height="512" x="0" y="0" viewBox="0 0 512 512" style="enable-background:new 0 0 512 512" xml:space="preserve" class=""><g><path xmlns="http://www.w3.org/2000/svg" d="M438.431,327.845c-43.678-8.736-100.754-34.111-117.859-76.874C306.806,216.557,256.494,216,255.988,216c-.482,0-50.794.557-64.56,34.971-17.1,42.763-74.181,68.138-117.859,76.874C34.013,335.756,32,342.285,32,360a98.04,98.04,0,0,0,4.028,27.9L251.674,249.271a8,8,0,0,1,8.652,0L475.973,387.9A98.084,98.084,0,0,0,480,360C480,342.285,477.987,335.756,438.431,327.845Z" fill="#ffffff" data-original="#000000" style=""/><path xmlns="http://www.w3.org/2000/svg" d="M296,144c0,26.06-18.47,40.22-32,45.75v10.72c-4.73-.45-7.73-.47-8-.47s-3.27.02-8,.47V184a8,8,0,0,1,6.06-7.76C255.08,175.97,280,169.2,280,144c0-9.96-3.65-16.71-11.17-20.64A32.1,32.1,0,0,0,255.96,120a32.041,32.041,0,0,0-12.79,3.36C235.65,127.29,232,134.04,232,144a8,8,0,0,1-8,8H208a8,8,0,0,1,0-16h8.64c2.04-12.22,8.89-21.71,19.78-27.16A47.533,47.533,0,0,1,256,104a47.533,47.533,0,0,1,19.58,4.84C288.75,115.43,296,127.91,296,144Z" fill="#ffffff" data-original="#000000" style=""/><path xmlns="http://www.w3.org/2000/svg" d="M480,408H32.01a7.949,7.949,0,0,0,4.32-1.27L59.24,392H452.76l22.91,14.73A8.007,8.007,0,0,0,480,408Z" fill="#ffffff" data-original="#000000" style=""/></g></svg>
